# xmcd
#
# Track frame offsets: 
#        150
#        17410
#        36180
#        54165
#        73872
#        89302
#        113647
#        126612
#        144502
#        162037
#        176137
#        193485
#        207327
#
# Disc length: 2807 seconds
#
# Revision: 0
# Processed by: cddbd v1.5.2PL0 Copyright (c) Steve Scherf et al.
# Submitted via: ExactAudioCopyFreeDBPlugin 1.0
#
DISCID=bb0af50d
DTITLE=Johnny Tucker - Why You Lookin' At Me
DYEAR=2002
DGENRE=Blues
TTITLE0=Do The Rufus
TTITLE1=I Wish It Would Rain
TTITLE2=A Woman Gotta Have It
TTITLE3=Everywhere I Go
TTITLE4=Living A Hard Life
TTITLE5=Five Minute Love
TTITLE6=Why You Lookin' At Me
TTITLE7=Big Butt Women
TTITLE8=Show Me The Love
TTITLE9=Tired Of Boogying By Myself
TTITLE10=Back Street Love
TTITLE11=Gotta Find My baby
TTITLE12=Happy Birthday
EXTD=
EXTT0=
EXTT1=
EXTT2=
EXTT3=
EXTT4=
EXTT5=
EXTT6=
EXTT7=
EXTT8=
EXTT9=
EXTT10=
EXTT11=
EXTT12=
PLAYORDER=
